HIERARCHY
ROOT Hips
{
	OFFSET	0.00	0.00	0.00
	CHANNELS 6 Xposition Yposition Zposition Zrotation Xrotation Yrotation
	JOINT LeftUpLeg
	{
		OFFSET	 0.126116	-0.014019	-0.065224
		CHANNELS 3 Zrotation Xrotation Yrotation
		JOINT LeftLeg
		{
			OFFSET	 0.000000	 0.000000	 0.569914
			CHANNELS 3 Zrotation Xrotation Yrotation
			JOINT LeftFoot
			{
				OFFSET	 0.000000	 0.000000	 0.544423
				CHANNELS 3 Zrotation Xrotation Yrotation
				JOINT LeftToeBase
				{
					OFFSET	 0.000000	 0.000000	 0.207117
					CHANNELS 3 Zrotation Xrotation Yrotation
					End Site
					{
						OFFSET	 0.000000	 0.000000	 0.207117
					}
				}
			}
		}
	}
	JOINT RightUpLeg
	{
		OFFSET	-0.124023	-0.008373	-0.065224
		CHANNELS 3 Zrotation Xrotation Yrotation
		JOINT RightLeg
		{
			OFFSET	 0.000000	 0.000000	 0.570047
			CHANNELS 3 Zrotation Xrotation Yrotation
			JOINT RightFoot
			{
				OFFSET	 0.000000	 0.000000	 0.544354
				CHANNELS 3 Zrotation Xrotation Yrotation
				JOINT RightToeBase
				{
					OFFSET	 0.000000	 0.000000	 0.207540
					CHANNELS 3 Zrotation Xrotation Yrotation
					End Site
					{
						OFFSET	 0.000000	 0.000000	 0.207540
					}
				}
			}
		}
	}
	JOINT Spine
	{
		OFFSET	 0.000184	-0.007763	 0.117403
		CHANNELS 3 Zrotation Xrotation Yrotation
		JOINT Spine1
		{
			OFFSET	 0.000000	 0.000000	 0.137269
			CHANNELS 3 Zrotation Xrotation Yrotation
			JOINT Spine2
			{
				OFFSET	 0.000000	 0.000000	 0.156879
				CHANNELS 3 Zrotation Xrotation Yrotation
				JOINT LeftShoulder
				{
					OFFSET	 0.080501	-0.002496	 0.160144
					CHANNELS 3 Zrotation Xrotation Yrotation
					JOINT LeftArm
					{
						OFFSET	 0.000000	 0.000000	 0.164363
						CHANNELS 3 Zrotation Xrotation Yrotation
						JOINT LeftForeArm
						{
							OFFSET	 0.000000	 0.000000	 0.364576
							CHANNELS 3 Zrotation Xrotation Yrotation
							JOINT LeftHand
							{
								OFFSET	 0.000000	 0.000000	 0.360812
								CHANNELS 3 Zrotation Xrotation Yrotation
								JOINT LeftHandIndex1
								{
									OFFSET	 0.000000	 0.000000	 0.086006
									CHANNELS 3 Zrotation Xrotation Yrotation
									JOINT LeftHandIndex2
									{
										OFFSET	 0.000000	 0.000000	 0.047236
										CHANNELS 3 Zrotation Xrotation Yrotation
										JOINT LeftHandIndex3
										{
											OFFSET	-0.004284	-0.000551	 0.038166
											CHANNELS 3 Zrotation Xrotation Yrotation
											End Site
											{
												OFFSET	-0.004284	-0.000551	 0.038166
											}
										}
									}
								}
							}
						}
					}
				}
				JOINT Neck
				{
					OFFSET	 0.000000	 0.000000	 0.176489
					CHANNELS 3 Zrotation Xrotation Yrotation
					JOINT Head
					{
						OFFSET	 0.000000	-0.001747	 0.077940
						CHANNELS 3 Zrotation Xrotation Yrotation
						End Site
						{
							OFFSET	 0.000000	-0.001747	 0.077940
						}
					}
				}
				JOINT RightShoulder
				{
					OFFSET	-0.080363	 0.000306	 0.159706
					CHANNELS 3 Zrotation Xrotation Yrotation
					JOINT RightArm
					{
						OFFSET	 0.000000	 0.000000	 0.164196
						CHANNELS 3 Zrotation Xrotation Yrotation
						JOINT RightForeArm
						{
							OFFSET	 0.000000	 0.000000	 0.365611
							CHANNELS 3 Zrotation Xrotation Yrotation
							JOINT RightHand
							{
								OFFSET	 0.000000	 0.000000	 0.360648
								CHANNELS 3 Zrotation Xrotation Yrotation
								JOINT RightHandIndex1
								{
									OFFSET	 0.000000	 0.000000	 0.069977
									CHANNELS 3 Zrotation Xrotation Yrotation
									JOINT RightHandIndex2
									{
										OFFSET	 0.000000	 0.000000	 0.052305
										CHANNELS 3 Zrotation Xrotation Yrotation
										JOINT RightHandIndex3
										{
											OFFSET	 0.009002	-0.000782	 0.042196
											CHANNELS 3 Zrotation Xrotation Yrotation
											End Site
											{
												OFFSET	 0.009002	-0.000782	 0.042196
											}
										}
									}
								}
							}
						}
					}
				}
			}
		}
	}
}
MOTION
Frames:    11
Frame Time: 0.03333334
-0.105049	 3.207265	 0.354142	-13.417370	-2.251733	-1.165701	 7.278321	 20.326470	-176.808800	-3.570264	-11.632220	 1.474734	 3.571851	 84.344560	-0.222943	-2.303629	 39.502480	-0.262371	 4.981726	-35.682280	-177.861600	 1.188716	-43.337620	 5.156837	 111.369700	 89.834490	-105.560900	 2.371281	 31.031180	 0.058248	-2.649539	 3.497566	 2.355533	-3.897540	-1.412514	 0.634236	-4.488224	-3.813107	-0.953835	-91.776180	 78.527400	-180.000000	 35.641070	 60.557890	-53.722370	-8.979011	-4.960762	-35.889350	 4.240120	 2.140933	-5.366501	-3.812334	 37.924440	-2.927599	-2.450526	 36.184240	 0.754587	-1.378229	 35.397820	-2.634230	 1.218747	 2.159676	-4.954338	 0.185162	-9.246386	 3.281447	 89.782100	 78.203870	-180.000000	-37.928230	 72.054630	 35.396760	 0.122201	-6.824293	 22.123920	-14.241910	 0.957631	 9.547623	 6.437017	 35.671460	-0.771858	 2.830251	 35.756010	-7.813440	-2.350882	 35.473990	 5.254307
-0.118807	 3.156991	 0.352313	-12.945350	-1.922844	-1.304656	 7.455159	 22.468140	-177.170500	-3.394293	-11.623640	 1.541322	 4.248334	 84.366040	-0.589488	-2.269470	 42.325440	-0.339825	 5.220189	-36.067230	-177.486400	-0.169479	-38.815400	 3.830948	 151.230200	 89.456790	-145.990100	 2.362405	 32.482610	 0.091262	-2.763900	 3.278986	 2.148160	-3.968918	-1.551603	 0.534220	-4.501945	-3.947007	-1.004043	-91.776180	 78.527400	 180.000000	 36.415520	 60.597710	-54.783270	-9.076979	-4.978427	-36.692700	 4.142190	 2.134189	-5.365343	-3.812334	 37.924440	-2.927599	-2.450526	 36.184240	 0.754587	-1.378229	 35.397820	-2.634230	 1.228491	 2.133845	-4.998458	 0.223084	-9.387951	 3.795560	 89.782100	 78.203850	-180.000000	-36.681290	 72.762540	 33.964120	 0.307755	-6.723805	 21.099960	-14.685520	 0.942925	 9.536784	 6.437017	 35.671460	-0.771858	 2.830251	 35.756010	-7.813440	-2.350882	 35.473990	 5.254307
-0.134662	 3.101787	 0.350378	-12.420610	-1.971434	-1.323757	 7.781641	 24.854970	-178.038000	-2.837910	-11.606720	 1.665061	 5.104326	 83.403530	-0.797193	-2.223294	 45.455540	-0.432927	 4.926501	-35.798440	-177.472500	 0.175268	-37.787280	 3.785350	 149.380200	 89.441860	-143.990000	 2.362792	 32.423380	 0.089901	-2.912713	 3.181715	 1.923071	-4.044081	-1.627733	 0.351865	-4.453848	-3.976004	-1.071739	-91.776180	 78.527420	-180.000000	 37.591210	 61.139610	-55.608070	-9.131170	-4.985894	-36.547500	 4.177234	 2.133495	-5.365130	-3.812334	 37.924440	-2.927599	-2.450526	 36.184240	 0.754587	-1.378229	 35.397820	-2.634230	 1.276304	 2.080270	-5.039321	 0.289795	-9.427038	 4.263454	 89.782120	 78.203870	 180.000000	-35.600300	 73.317090	 32.769780	 0.298813	-6.606476	 19.995870	-15.191260	 0.925621	 9.523400	 6.437017	 35.671460	-0.771858	 2.830251	 35.756010	-7.813440	-2.350882	 35.473990	 5.254307
-0.153147	 3.041996	 0.348407	-11.876230	-2.102508	-1.298038	 8.252729	 27.345480	-179.345400	-1.986777	-11.582850	 1.825558	 5.792816	 80.987140	-0.557880	-2.174948	 48.164620	-0.521044	 4.814706	-34.713990	-177.717300	 1.194074	-39.132130	 4.571274	 54.074790	 89.723050	-48.006420	 2.375319	 30.301060	 0.041926	-3.074181	 3.049959	 1.849543	-4.118153	-1.633321	 0.117813	-4.332467	-3.794055	-1.158276	-91.776180	 78.527400	-180.000000	 39.163230	 62.021350	-56.099040	-9.127913	-4.894737	-35.607760	 4.174140	 2.154840	-5.369264	-3.812334	 37.924440	-2.927599	-2.450526	 36.184240	 0.754587	-1.378229	 35.397820	-2.634230	 1.402948	 2.322351	-5.117547	 0.398518	-9.573098	 4.674816	 89.782120	 78.203870	 180.000000	-34.751930	 73.714130	 31.824420	 0.161285	-6.477868	 18.959770	-15.667550	 0.908131	 9.508901	 6.437017	 35.671460	-0.771858	 2.830251	 35.756010	-7.813440	-2.350882	 35.473990	 5.254307
-0.175307	 2.973251	 0.346649	-11.112250	-2.234946	-1.177940	 8.894441	 29.972450	 178.770600	-1.074062	-11.561410	 1.958622	 5.798936	 76.194370	 0.432170	-2.115415	 50.952360	-0.620752	 4.179893	-32.976810	-178.456500	 3.230799	-41.755060	 5.979214	 6.228144	 88.534600	 0.809615	 2.382157	 28.938760	 0.011934	-3.369051	 2.771741	 1.672513	-4.268004	-1.646734	-0.155169	-4.150526	-3.516353	-1.319290	-91.776180	 78.527400	-180.000000	 41.039150	 63.368780	-55.965230	-8.915704	-4.807987	-33.614830	 4.363162	 2.142703	-5.366634	-3.812334	 37.924440	-2.927599	-2.450526	 36.184240	 0.754587	-1.378229	 35.397820	-2.634230	 1.560927	 2.772635	-5.111928	 0.516402	-9.670364	 4.916852	 89.782110	 78.203870	 180.000000	-33.090870	 74.043370	 29.721280	 0.088124	-6.344281	 18.094820	-16.030540	 0.895363	 9.497452	 6.437017	 35.671460	-0.771858	 2.830251	 35.756010	-7.813440	-2.350882	 35.473990	 5.254307
-0.192521	 2.919145	 0.347104	-10.307060	-2.350852	-1.033072	 9.469815	 31.857690	 177.246900	-1.035097	-11.567110	 1.924870	 5.399092	 70.242720	 1.099814	-2.105351	 51.376580	-0.636879	 3.175653	-31.540970	-179.010300	 4.445687	-43.840230	 6.571079	 3.395591	 86.445930	 3.664043	 2.388654	 27.438420	-0.020434	-3.615197	 2.599242	 1.348454	-4.396724	-1.609344	-0.323512	-4.074893	-3.376274	-1.439916	-91.776180	 78.527420	-180.000000	 42.639200	 64.650150	-55.820660	-8.538739	-4.823553	-31.305730	 4.839346	 2.149531	-5.367481	-3.812334	 37.924440	-2.927599	-2.450526	 36.184240	 0.754587	-1.378229	 35.397820	-2.634230	 1.644912	 3.025567	-5.020727	 0.574356	-9.574118	 4.924603	 89.782120	 78.203930	 180.000000	-32.062620	 74.174150	 28.394910	 0.167523	-6.239333	 17.707080	-16.071190	 0.887678	 9.492354	 6.437017	 35.671460	-0.771858	 2.830251	 35.756010	-7.813440	-2.350882	 35.473990	 5.254307
-0.213905	 2.862697	 0.351941	-9.325438	-2.630942	-1.281915	 7.425778	 25.862670	 176.735000	-1.002561	-25.985560	 1.715038	 3.392647	 66.174330	 0.238084	-2.152901	 49.257480	-0.558931	 2.062243	-30.002120	-179.223300	 5.209814	-46.542820	 6.850237	 3.516793	 84.211390	 3.016839	 2.397198	 24.943580	-0.072929	-3.697597	 2.218727	 1.512867	-4.486274	-1.474629	-0.395542	-4.178396	-3.088975	-1.482029	-91.776180	 78.527400	-180.000000	 44.178390	 66.300960	-55.759580	-8.214371	-4.790680	-27.750510	 5.613218	 2.144492	-5.365395	-3.812334	 37.924440	-2.927599	-2.450526	 36.184240	 0.754587	-1.378229	 35.397820	-2.634230	 1.688988	 3.036018	-4.850858	 0.607860	-9.257949	 4.756129	 89.782120	 78.203870	 180.000000	-32.220760	 74.079370	 28.755570	 0.144988	-6.108123	 17.311440	-16.041900	 0.878990	 9.486459	 6.437017	 35.671460	-0.771858	 2.830251	 35.756010	-7.813440	-2.350882	 35.473990	 5.254307
-0.235808	 2.808360	 0.357909	-8.514206	-2.792778	-1.183889	 7.658225	 17.950490	 174.660700	-1.354768	-41.906020	 1.265087	 2.228587	 59.919690	 0.533193	-2.266072	 42.579140	-0.347071	 1.373528	-27.820490	-179.917800	 5.766168	-48.074280	 7.049916	 3.489988	 84.226030	 2.844421	 2.405410	 20.999550	-0.153188	-3.718611	 2.230976	 1.512614	-4.494645	-1.456303	-0.491163	-4.066418	-2.846268	-1.497581	-91.776180	 78.527400	 180.000000	 44.396520	 68.170240	-54.504310	-8.145382	-4.708067	-24.005260	 6.570527	 2.105996	-5.353242	-3.812334	 37.924440	-2.927599	-2.450526	 36.184240	 0.754587	-1.378229	 35.397820	-2.634230	 1.624692	 2.918518	-4.721107	 0.530221	-8.813007	 4.383208	 89.782120	 78.203930	 180.000000	-33.167110	 73.593170	 30.270160	-0.240391	-6.020946	 16.962920	-16.103990	 0.875241	 9.483659	 6.437017	 35.671460	-0.771858	 2.830251	 35.756010	-7.813440	-2.350882	 35.473990	 5.254307
-0.256074	 2.756670	 0.363649	-7.506031	-3.179311	 0.851724	 7.529184	 11.290000	 171.171800	-2.886271	-55.023910	-1.174288	 0.133482	 54.828510	 1.101213	-2.356399	 33.602190	-0.115700	 0.531062	-23.746970	 177.408800	 6.729717	-47.237000	 7.000231	 2.660336	 85.068980	 3.902025	 2.407635	 18.001610	-0.212499	-4.144629	 3.030431	-0.685911	-4.541167	-1.564928	-0.934601	-3.802079	-3.396094	-1.575799	-91.776180	 78.527400	 180.000000	 43.225590	 69.963290	-52.173310	-8.758966	-4.426626	-20.833800	 7.082040	 2.055609	-5.336558	-3.812334	 37.924440	-2.927599	-2.450526	 36.184240	 0.754587	-1.378229	 35.397820	-2.634230	 1.467422	 2.901548	-4.609893	 0.356681	-8.640685	 3.842987	 89.782120	 78.203930	 180.000000	-34.744840	 72.791550	 32.848420	-0.732880	-5.962541	 16.773190	-16.104890	 0.875034	 9.483376	 6.437017	 35.671460	-0.771858	 2.830251	 35.756010	-7.813440	-2.350882	 35.473990	 5.254307
-0.274146	 2.709549	 0.368698	-6.401180	-3.154555	 2.326442	 6.113461	 4.357790	 169.534000	-5.085189	-65.337690	-4.978450	-0.876113	 56.980290	 0.539982	-2.357468	 33.450110	-0.112143	 0.230730	-20.345160	 175.386600	 7.390422	-45.862200	 6.912135	 1.555046	 86.424950	 5.352397	 2.407686	 17.567160	-0.220997	-4.417426	 3.211893	-2.165963	-4.644123	-1.665427	-1.268306	-3.964033	-3.909013	-1.571257	-91.776180	 78.527400	-180.000000	 41.793540	 71.240070	-50.085880	-9.778399	-4.004982	-18.405070	 6.976127	 2.003324	-5.321224	-3.812334	 37.924440	-2.927599	-2.450526	 36.184240	 0.754587	-1.378229	 35.397820	-2.634230	 1.282364	 2.954706	-4.489566	 0.199044	-8.939378	 3.383175	 89.782120	 78.203870	 180.000000	-36.766970	 71.754900	 36.597220	-1.157220	-5.959810	 16.789620	-16.080430	 0.873721	 9.482547	 6.437017	 35.671460	-0.771858	 2.830251	 35.756010	-7.813440	-2.350882	 35.473990	 5.254307
-0.290168	 2.664278	 0.372534	-5.640482	-3.147159	 2.744807	 4.099665	-2.188092	 169.960100	-6.414757	-72.373760	-7.940088	-1.162955	 62.011390	 0.320050	-2.337665	 36.002390	-0.173223	 0.325228	-17.594130	 174.523100	 7.590976	-45.059810	 6.862882	-0.987408	 88.236750	 8.136577	 2.407670	 17.755310	-0.217313	-4.332512	 3.152782	-2.560584	-4.611775	-1.697521	-1.254898	-4.275030	-4.194360	-1.441723	-91.776180	 78.527400	-180.000000	 39.881710	 71.983760	-47.553410	-10.333500	-3.762578	-16.835280	 7.003179	 1.967085	-5.310215	-3.812334	 37.924440	-2.927599	-2.450526	 36.184240	 0.754587	-1.378229	 35.397820	-2.634230	 1.062702	 2.985024	-4.345228	 0.024368	-9.217163	 2.812107	 89.782070	 78.203930	-180.000000	-38.156930	 70.583380	 40.124050	-1.428024	-6.048552	 17.075410	-16.081990	 0.876901	 9.484389	 6.437017	 35.671460	-0.771858	 2.830251	 35.756010	-7.813440	-2.350882	 35.473990	 5.254307
